<svg width="1500" height="855" viewBox="0 0 1500 855" fill="none" xmlns="http://www.w3.org/2000/svg">
<g clip-path="url(#clip0_396_2921)">
<g clip-path="url(#clip1_396_2921)" filter="url(#filter0_d_396_2921)">
<path d="M1431.52 610.608H1344.6L1344.29 407.5L1431.5 395.46L1431.52 610.608Z" fill="url(#paint0_linear_396_2921)"/>
<path d="M1431.23 169.148H1344.3L1344 -33.9594L1431.2 -46L1431.23 169.148Z" fill="url(#paint1_linear_396_2921)"/>
<path d="M1344 180H1430.92L1431.23 383.108L1344.02 395.148L1344 180Z" fill="url(#paint2_linear_396_2921)"/>
<path d="M1345 621H1431.92L1432.23 824.108L1345.02 836.148L1345 621Z" fill="url(#paint3_linear_396_2921)"/>
<path d="M1527.52 670.608H1440.6L1440.29 467.5L1527.5 455.46L1527.52 670.608Z" fill="url(#paint4_linear_396_2921)"/>
<path d="M1527.23 229.148H1440.3L1440 26.0406L1527.2 14L1527.23 229.148Z" fill="url(#paint5_linear_396_2921)"/>
<path d="M1440 240H1526.92L1527.23 443.108L1440.02 455.148L1440 240Z" fill="url(#paint6_linear_396_2921)"/>
<path d="M1441 681H1527.92L1528.23 884.108L1441.02 896.148L1441 681Z" fill="url(#paint7_linear_396_2921)"/>
<path d="M1335.52 650.608H1248.6L1248.29 447.5L1335.5 435.46L1335.52 650.608Z" fill="url(#paint8_linear_396_2921)"/>
<path d="M1335.23 209.148H1248.3L1248 6.04056L1335.2 -6L1335.23 209.148Z" fill="url(#paint9_linear_396_2921)"/>
<path d="M1248 220H1334.92L1335.23 423.108L1248.02 435.148L1248 220Z" fill="url(#paint10_linear_396_2921)"/>
<path d="M1249 661H1335.92L1336.23 864.108L1249.02 876.148L1249 661Z" fill="url(#paint11_linear_396_2921)"/>
<path d="M1239.52 610.608H1152.6L1152.29 407.5L1239.5 395.46L1239.52 610.608Z" fill="url(#paint12_linear_396_2921)"/>
<path d="M1239.23 169.148H1152.3L1152 -33.9594L1239.2 -46L1239.23 169.148Z" fill="url(#paint13_linear_396_2921)"/>
<path d="M1152 180H1238.92L1239.23 383.108L1152.02 395.148L1152 180Z" fill="url(#paint14_linear_396_2921)"/>
<path d="M1153 621H1239.92L1240.23 824.108L1153.02 836.148L1153 621Z" fill="url(#paint15_linear_396_2921)"/>
<path fill-rule="evenodd" clip-rule="evenodd" d="M1268.15 498.913C1267.21 495.216 1270.81 491.982 1274.39 493.3L1294.13 500.575C1302.94 502.343 1313.06 508.422 1321.55 517.854C1336.11 534.025 1340.38 553.924 1331.07 562.299C1321.77 570.674 1302.43 564.355 1287.86 548.184C1280.04 539.501 1275.2 529.744 1273.82 521.273L1268.15 498.913ZM1284.45 512.988L1317.36 549.533L1320.47 546.731L1287.56 510.186L1284.45 512.988Z" fill="white" fill-opacity="0.5"/>
<path fill-rule="evenodd" clip-rule="evenodd" d="M1219.85 270.913C1220.79 267.216 1217.19 263.982 1213.61 265.3L1193.87 272.575C1185.06 274.343 1174.94 280.422 1166.45 289.854C1151.89 306.025 1147.62 325.924 1156.93 334.299C1166.23 342.674 1185.57 336.355 1200.14 320.184C1207.96 311.501 1212.8 301.744 1214.18 293.273L1219.85 270.913ZM1203.55 284.988L1170.64 321.533L1167.53 318.731L1200.44 282.186L1203.55 284.988Z" fill="white" fill-opacity="0.5"/>
</g>
<g clip-path="url(#clip2_396_2921)" filter="url(#filter1_d_396_2921)">
<path d="M279.521 597.608H192.597L192.292 394.5L279.497 382.46L279.521 597.608Z" fill="url(#paint16_linear_396_2921)"/>
<path d="M279.229 156.148H192.305L192 -46.9594L279.204 -59L279.229 156.148Z" fill="url(#paint17_linear_396_2921)"/>
<path d="M192 167H278.924L279.229 370.108L192.024 382.148L192 167Z" fill="url(#paint18_linear_396_2921)"/>
<path d="M193 608H279.924L280.229 811.108L193.024 823.148L193 608Z" fill="url(#paint19_linear_396_2921)"/>
<path d="M375.521 657.608H288.597L288.292 454.5L375.497 442.46L375.521 657.608Z" fill="url(#paint20_linear_396_2921)"/>
<path d="M375.229 216.148H288.305L288 13.0406L375.204 1L375.229 216.148Z" fill="url(#paint21_linear_396_2921)"/>
<path d="M288 227H374.924L375.229 430.108L288.024 442.148L288 227Z" fill="url(#paint22_linear_396_2921)"/>
<path d="M289 668H375.924L376.229 871.108L289.024 883.148L289 668Z" fill="url(#paint23_linear_396_2921)"/>
<path d="M183.521 637.608H96.5968L96.2923 434.5L183.497 422.46L183.521 637.608Z" fill="url(#paint24_linear_396_2921)"/>
<path d="M183.229 196.148H96.3045L96 -6.95944L183.204 -19L183.229 196.148Z" fill="url(#paint25_linear_396_2921)"/>
<path d="M96 207H182.924L183.229 410.108L96.0243 422.148L96 207Z" fill="url(#paint26_linear_396_2921)"/>
<path d="M97 648H183.924L184.229 851.108L97.0243 863.148L97 648Z" fill="url(#paint27_linear_396_2921)"/>
<path d="M87.521 597.608H0.596848L0.292329 394.5L87.4967 382.46L87.521 597.608Z" fill="url(#paint28_linear_396_2921)"/>
<path d="M87.2287 156.148H0.304518L0 -46.9594L87.2044 -59L87.2287 156.148Z" fill="url(#paint29_linear_396_2921)"/>
<path d="M0 167H86.9242L87.2287 370.108L0.0242767 382.148L0 167Z" fill="url(#paint30_linear_396_2921)"/>
<path d="M1 608H87.9242L88.2287 811.108L1.02428 823.148L1 608Z" fill="url(#paint31_linear_396_2921)"/>
<path fill-rule="evenodd" clip-rule="evenodd" d="M259.849 218.913C260.787 215.216 257.194 211.982 253.614 213.3L233.87 220.575C225.063 222.343 214.941 228.422 206.448 237.854C191.885 254.025 187.622 273.924 196.925 282.299C206.228 290.674 225.575 284.355 240.137 268.184C247.956 259.501 252.804 249.744 254.179 241.273L259.849 218.913ZM243.55 232.988L210.641 269.533L207.528 266.731L240.438 230.186L243.55 232.988Z" fill="white" fill-opacity="0.5"/>
</g>
<g clip-path="url(#clip3_396_2921)" filter="url(#filter2_d_396_2921)">
<path d="M663.521 616.608H576.597L576.292 413.5L663.497 401.46L663.521 616.608Z" fill="url(#paint32_linear_396_2921)"/>
<path d="M663.229 175.148H576.305L576 -27.9594L663.204 -40L663.229 175.148Z" fill="url(#paint33_linear_396_2921)"/>
<path d="M576 186H662.924L663.229 389.108L576.024 401.148L576 186Z" fill="url(#paint34_linear_396_2921)"/>
<path d="M577 627H663.924L664.229 830.108L577.024 842.148L577 627Z" fill="url(#paint35_linear_396_2921)"/>
<path d="M759.521 676.608H672.597L672.292 473.5L759.497 461.46L759.521 676.608Z" fill="url(#paint36_linear_396_2921)"/>
<path d="M759.229 235.148H672.305L672 32.0406L759.204 20L759.229 235.148Z" fill="url(#paint37_linear_396_2921)"/>
<path d="M672 246H758.924L759.229 449.108L672.024 461.148L672 246Z" fill="url(#paint38_linear_396_2921)"/>
<path d="M673 687H759.924L760.229 890.108L673.024 902.148L673 687Z" fill="url(#paint39_linear_396_2921)"/>
<path d="M567.521 656.608H480.597L480.292 453.5L567.497 441.46L567.521 656.608Z" fill="url(#paint40_linear_396_2921)"/>
<path d="M567.229 215.148H480.305L480 12.0406L567.204 0L567.229 215.148Z" fill="url(#paint41_linear_396_2921)"/>
<path d="M480 226H566.924L567.229 429.108L480.024 441.148L480 226Z" fill="url(#paint42_linear_396_2921)"/>
<path d="M481 667H567.924L568.229 870.108L481.024 882.148L481 667Z" fill="url(#paint43_linear_396_2921)"/>
<path d="M471.521 616.608H384.597L384.292 413.5L471.497 401.46L471.521 616.608Z" fill="url(#paint44_linear_396_2921)"/>
<path d="M471.229 175.148H384.305L384 -27.9594L471.204 -40L471.229 175.148Z" fill="url(#paint45_linear_396_2921)"/>
<path d="M384 186H470.924L471.229 389.108L384.024 401.148L384 186Z" fill="url(#paint46_linear_396_2921)"/>
<path d="M385 627H471.924L472.229 830.108L385.024 842.148L385 627Z" fill="url(#paint47_linear_396_2921)"/>
<path fill-rule="evenodd" clip-rule="evenodd" d="M404.151 302.913C403.213 299.216 406.806 295.982 410.386 297.3L430.13 304.575C438.937 306.343 449.059 312.422 457.552 321.854C472.115 338.025 476.378 357.924 467.075 366.299C457.772 374.674 438.425 368.355 423.863 352.184C416.044 343.501 411.196 333.744 409.821 325.273L404.151 302.913ZM420.45 316.988L453.359 353.533L456.472 350.731L423.562 314.186L420.45 316.988Z" fill="white" fill-opacity="0.5"/>
<path fill-rule="evenodd" clip-rule="evenodd" d="M596.151 506.913C595.213 503.216 598.806 499.982 602.386 501.3L622.13 508.575C630.937 510.343 641.059 516.422 649.552 525.854C664.115 542.025 668.378 561.924 659.075 570.299C649.772 578.674 630.425 572.355 615.863 556.184C608.044 547.501 603.196 537.744 601.821 529.273L596.151 506.913ZM612.45 520.988L645.359 557.533L648.472 554.731L615.562 518.186L612.45 520.988Z" fill="white" fill-opacity="0.5"/>
</g>
<g clip-path="url(#clip4_396_2921)" filter="url(#filter3_d_396_2921)">
<path d="M1047.52 610.608H960.597L960.292 407.5L1047.5 395.46L1047.52 610.608Z" fill="url(#paint48_linear_396_2921)"/>
<path d="M1047.23 169.148H960.305L960 -33.9594L1047.2 -46L1047.23 169.148Z" fill="url(#paint49_linear_396_2921)"/>
<path d="M960 180H1046.92L1047.23 383.108L960.024 395.148L960 180Z" fill="url(#paint50_linear_396_2921)"/>
<path d="M961 621H1047.92L1048.23 824.108L961.024 836.148L961 621Z" fill="url(#paint51_linear_396_2921)"/>
<path d="M1143.52 670.608H1056.6L1056.29 467.5L1143.5 455.46L1143.52 670.608Z" fill="url(#paint52_linear_396_2921)"/>
<path d="M1143.23 229.148H1056.3L1056 26.0406L1143.2 14L1143.23 229.148Z" fill="url(#paint53_linear_396_2921)"/>
<path d="M1056 240H1142.92L1143.23 443.108L1056.02 455.148L1056 240Z" fill="url(#paint54_linear_396_2921)"/>
<path d="M1057 681H1143.92L1144.23 884.108L1057.02 896.148L1057 681Z" fill="url(#paint55_linear_396_2921)"/>
<path d="M951.521 650.608H864.597L864.292 447.5L951.497 435.46L951.521 650.608Z" fill="url(#paint56_linear_396_2921)"/>
<path d="M951.229 209.148H864.305L864 6.04056L951.204 -6L951.229 209.148Z" fill="url(#paint57_linear_396_2921)"/>
<path d="M864 220H950.924L951.229 423.108L864.024 435.148L864 220Z" fill="url(#paint58_linear_396_2921)"/>
<path d="M865 661H951.924L952.229 864.108L865.024 876.148L865 661Z" fill="url(#paint59_linear_396_2921)"/>
<path d="M855.521 610.608H768.597L768.292 407.5L855.497 395.46L855.521 610.608Z" fill="url(#paint60_linear_396_2921)"/>
<path d="M855.229 169.148H768.305L768 -33.9594L855.204 -46L855.229 169.148Z" fill="url(#paint61_linear_396_2921)"/>
<path d="M768 180H854.924L855.229 383.108L768.024 395.148L768 180Z" fill="url(#paint62_linear_396_2921)"/>
<path d="M769 621H855.924L856.229 824.108L769.024 836.148L769 621Z" fill="url(#paint63_linear_396_2921)"/>
<path fill-rule="evenodd" clip-rule="evenodd" d="M874.151 327.913C873.213 324.216 876.806 320.982 880.386 322.3L900.13 329.575C908.937 331.343 919.059 337.422 927.552 346.854C942.115 363.025 946.378 382.924 937.075 391.299C927.772 399.674 908.425 393.355 893.863 377.184C886.044 368.501 881.196 358.744 879.821 350.273L874.151 327.913ZM890.45 341.988L923.359 378.533L926.472 375.731L893.562 339.186L890.45 341.988Z" fill="white" fill-opacity="0.5"/>
<path fill-rule="evenodd" clip-rule="evenodd" d="M1075.15 723.913C1074.21 720.216 1077.81 716.982 1081.39 718.3L1101.13 725.575C1109.94 727.343 1120.06 733.422 1128.55 742.854C1143.11 759.025 1147.38 778.924 1138.07 787.299C1128.77 795.674 1109.43 789.355 1094.86 773.184C1087.04 764.501 1082.2 754.744 1080.82 746.273L1075.15 723.913ZM1091.45 737.988L1124.36 774.533L1127.47 771.731L1094.56 735.186L1091.45 737.988Z" fill="white" fill-opacity="0.5"/>
<path fill-rule="evenodd" clip-rule="evenodd" d="M835.849 709.913C836.787 706.216 833.194 702.982 829.614 704.3L809.87 711.575C801.063 713.343 790.941 719.422 782.448 728.854C767.885 745.025 763.622 764.924 772.925 773.299C782.228 781.674 801.575 775.355 816.137 759.184C823.956 750.501 828.804 740.744 830.179 732.273L835.849 709.913ZM819.55 723.988L786.641 760.533L783.528 757.731L816.438 721.186L819.55 723.988Z" fill="white" fill-opacity="0.5"/>
</g>
<path opacity="0.5" d="M1500 0H0V855H1500V0Z" fill="url(#paint64_linear_396_2921)"/>
<path fill-rule="evenodd" clip-rule="evenodd" d="M20.151 509.913C19.2135 506.216 22.8058 502.982 26.3855 504.3L46.1299 511.575C54.9366 513.343 65.0586 519.422 73.5523 528.854C88.1147 545.025 92.3777 564.924 83.0748 573.299C73.7717 581.674 54.4253 575.355 39.8631 559.184C32.0445 550.501 27.1961 540.744 25.8208 532.273L20.151 509.913ZM36.4496 523.988L69.3595 560.533L72.4718 557.731L39.5619 521.186L36.4496 523.988Z" fill="white" fill-opacity="0.5"/>
<path fill-rule="evenodd" clip-rule="evenodd" d="M308.151 686.913C307.213 683.216 310.806 679.982 314.386 681.3L334.13 688.575C342.937 690.343 353.059 696.422 361.552 705.854C376.115 722.025 380.378 741.924 371.075 750.299C361.772 758.674 342.425 752.355 327.863 736.184C320.044 727.501 315.196 717.744 313.821 709.273L308.151 686.913ZM324.45 700.988L357.359 737.533L360.472 734.731L327.562 698.186L324.45 700.988Z" fill="white" fill-opacity="0.5"/>
</g>
<defs>
<filter id="filter0_d_396_2921" x="1148" y="-6" width="383" height="863" filterUnits="userSpaceOnUse" color-interpolation-filters="sRGB">
<feFlood flood-opacity="0" result="BackgroundImageFix"/>
<feColorMatrix in="SourceAlpha" type="matrix" values="0 0 0 0 0 0 0 0 0 0 0 0 0 0 0 0 0 0 127 0" result="hardAlpha"/>
<feOffset dy="4"/>
<feGaussianBlur stdDeviation="2"/>
<feComposite in2="hardAlpha" operator="out"/>
<feColorMatrix type="matrix" values="0 0 0 0 0 0 0 0 0 0 0 0 0 0 0 0 0 0 0.25 0"/>
<feBlend mode="normal" in2="BackgroundImageFix" result="effect1_dropShadow_396_2921"/>
<feBlend mode="normal" in="SourceGraphic" in2="effect1_dropShadow_396_2921" result="shape"/>
</filter>
<filter id="filter1_d_396_2921" x="-4" y="-19" width="383" height="863" filterUnits="userSpaceOnUse" color-interpolation-filters="sRGB">
<feFlood flood-opacity="0" result="BackgroundImageFix"/>
<feColorMatrix in="SourceAlpha" type="matrix" values="0 0 0 0 0 0 0 0 0 0 0 0 0 0 0 0 0 0 127 0" result="hardAlpha"/>
<feOffset dy="4"/>
<feGaussianBlur stdDeviation="2"/>
<feComposite in2="hardAlpha" operator="out"/>
<feColorMatrix type="matrix" values="0 0 0 0 0 0 0 0 0 0 0 0 0 0 0 0 0 0 0.25 0"/>
<feBlend mode="normal" in2="BackgroundImageFix" result="effect1_dropShadow_396_2921"/>
<feBlend mode="normal" in="SourceGraphic" in2="effect1_dropShadow_396_2921" result="shape"/>
</filter>
<filter id="filter2_d_396_2921" x="380" y="0" width="383" height="863" filterUnits="userSpaceOnUse" color-interpolation-filters="sRGB">
<feFlood flood-opacity="0" result="BackgroundImageFix"/>
<feColorMatrix in="SourceAlpha" type="matrix" values="0 0 0 0 0 0 0 0 0 0 0 0 0 0 0 0 0 0 127 0" result="hardAlpha"/>
<feOffset dy="4"/>
<feGaussianBlur stdDeviation="2"/>
<feComposite in2="hardAlpha" operator="out"/>
<feColorMatrix type="matrix" values="0 0 0 0 0 0 0 0 0 0 0 0 0 0 0 0 0 0 0.25 0"/>
<feBlend mode="normal" in2="BackgroundImageFix" result="effect1_dropShadow_396_2921"/>
<feBlend mode="normal" in="SourceGraphic" in2="effect1_dropShadow_396_2921" result="shape"/>
</filter>
<filter id="filter3_d_396_2921" x="764" y="-6" width="383" height="863" filterUnits="userSpaceOnUse" color-interpolation-filters="sRGB">
<feFlood flood-opacity="0" result="BackgroundImageFix"/>
<feColorMatrix in="SourceAlpha" type="matrix" values="0 0 0 0 0 0 0 0 0 0 0 0 0 0 0 0 0 0 127 0" result="hardAlpha"/>
<feOffset dy="4"/>
<feGaussianBlur stdDeviation="2"/>
<feComposite in2="hardAlpha" operator="out"/>
<feColorMatrix type="matrix" values="0 0 0 0 0 0 0 0 0 0 0 0 0 0 0 0 0 0 0.25 0"/>
<feBlend mode="normal" in2="BackgroundImageFix" result="effect1_dropShadow_396_2921"/>
<feBlend mode="normal" in="SourceGraphic" in2="effect1_dropShadow_396_2921" result="shape"/>
</filter>
<linearGradient id="paint0_linear_396_2921" x1="1388.11" y1="-46" x2="1388.11" y2="836.148" gradientUnits="userSpaceOnUse">
<stop stop-color="white"/>
<stop offset="1" stop-color="#666666" stop-opacity="0.5"/>
</linearGradient>
<linearGradient id="paint1_linear_396_2921" x1="1388.11" y1="-46" x2="1388.11" y2="836.148" gradientUnits="userSpaceOnUse">
<stop stop-color="white"/>
<stop offset="1" stop-color="#666666" stop-opacity="0.5"/>
</linearGradient>
<linearGradient id="paint2_linear_396_2921" x1="1388.11" y1="-46" x2="1388.11" y2="836.148" gradientUnits="userSpaceOnUse">
<stop stop-color="white"/>
<stop offset="1" stop-color="#666666" stop-opacity="0.5"/>
</linearGradient>
<linearGradient id="paint3_linear_396_2921" x1="1388.11" y1="-46" x2="1388.11" y2="836.148" gradientUnits="userSpaceOnUse">
<stop stop-color="white"/>
<stop offset="1" stop-color="#666666" stop-opacity="0.5"/>
</linearGradient>
<linearGradient id="paint4_linear_396_2921" x1="1484.11" y1="14" x2="1484.11" y2="896.148" gradientUnits="userSpaceOnUse">
<stop stop-color="white"/>
<stop offset="1" stop-color="#666666" stop-opacity="0.5"/>
</linearGradient>
<linearGradient id="paint5_linear_396_2921" x1="1484.11" y1="14" x2="1484.11" y2="896.148" gradientUnits="userSpaceOnUse">
<stop stop-color="white"/>
<stop offset="1" stop-color="#666666" stop-opacity="0.5"/>
</linearGradient>
<linearGradient id="paint6_linear_396_2921" x1="1484.11" y1="14" x2="1484.11" y2="896.148" gradientUnits="userSpaceOnUse">
<stop stop-color="white"/>
<stop offset="1" stop-color="#666666" stop-opacity="0.5"/>
</linearGradient>
<linearGradient id="paint7_linear_396_2921" x1="1484.11" y1="14" x2="1484.11" y2="896.148" gradientUnits="userSpaceOnUse">
<stop stop-color="white"/>
<stop offset="1" stop-color="#666666" stop-opacity="0.5"/>
</linearGradient>
<linearGradient id="paint8_linear_396_2921" x1="1292.11" y1="-6" x2="1292.11" y2="876.148" gradientUnits="userSpaceOnUse">
<stop stop-color="white"/>
<stop offset="1" stop-color="#666666" stop-opacity="0.5"/>
</linearGradient>
<linearGradient id="paint9_linear_396_2921" x1="1292.11" y1="-6" x2="1292.11" y2="876.148" gradientUnits="userSpaceOnUse">
<stop stop-color="white"/>
<stop offset="1" stop-color="#666666" stop-opacity="0.5"/>
</linearGradient>
<linearGradient id="paint10_linear_396_2921" x1="1292.11" y1="-6" x2="1292.11" y2="876.148" gradientUnits="userSpaceOnUse">
<stop stop-color="white"/>
<stop offset="1" stop-color="#666666" stop-opacity="0.5"/>
</linearGradient>
<linearGradient id="paint11_linear_396_2921" x1="1292.11" y1="-6" x2="1292.11" y2="876.148" gradientUnits="userSpaceOnUse">
<stop stop-color="white"/>
<stop offset="1" stop-color="#666666" stop-opacity="0.5"/>
</linearGradient>
<linearGradient id="paint12_linear_396_2921" x1="1196.11" y1="-46" x2="1196.11" y2="836.148" gradientUnits="userSpaceOnUse">
<stop stop-color="white"/>
<stop offset="1" stop-color="#666666" stop-opacity="0.5"/>
</linearGradient>
<linearGradient id="paint13_linear_396_2921" x1="1196.11" y1="-46" x2="1196.11" y2="836.148" gradientUnits="userSpaceOnUse">
<stop stop-color="white"/>
<stop offset="1" stop-color="#666666" stop-opacity="0.5"/>
</linearGradient>
<linearGradient id="paint14_linear_396_2921" x1="1196.11" y1="-46" x2="1196.11" y2="836.148" gradientUnits="userSpaceOnUse">
<stop stop-color="white"/>
<stop offset="1" stop-color="#666666" stop-opacity="0.5"/>
</linearGradient>
<linearGradient id="paint15_linear_396_2921" x1="1196.11" y1="-46" x2="1196.11" y2="836.148" gradientUnits="userSpaceOnUse">
<stop stop-color="white"/>
<stop offset="1" stop-color="#666666" stop-opacity="0.5"/>
</linearGradient>
<linearGradient id="paint16_linear_396_2921" x1="236.114" y1="-59" x2="236.114" y2="823.148" gradientUnits="userSpaceOnUse">
<stop stop-color="white"/>
<stop offset="1" stop-color="#666666" stop-opacity="0.5"/>
</linearGradient>
<linearGradient id="paint17_linear_396_2921" x1="236.114" y1="-59" x2="236.114" y2="823.148" gradientUnits="userSpaceOnUse">
<stop stop-color="white"/>
<stop offset="1" stop-color="#666666" stop-opacity="0.5"/>
</linearGradient>
<linearGradient id="paint18_linear_396_2921" x1="236.114" y1="-59" x2="236.114" y2="823.148" gradientUnits="userSpaceOnUse">
<stop stop-color="white"/>
<stop offset="1" stop-color="#666666" stop-opacity="0.5"/>
</linearGradient>
<linearGradient id="paint19_linear_396_2921" x1="236.114" y1="-59" x2="236.114" y2="823.148" gradientUnits="userSpaceOnUse">
<stop stop-color="white"/>
<stop offset="1" stop-color="#666666" stop-opacity="0.5"/>
</linearGradient>
<linearGradient id="paint20_linear_396_2921" x1="332.114" y1="1" x2="332.114" y2="883.148" gradientUnits="userSpaceOnUse">
<stop stop-color="white"/>
<stop offset="1" stop-color="#666666" stop-opacity="0.5"/>
</linearGradient>
<linearGradient id="paint21_linear_396_2921" x1="332.114" y1="1" x2="332.114" y2="883.148" gradientUnits="userSpaceOnUse">
<stop stop-color="white"/>
<stop offset="1" stop-color="#666666" stop-opacity="0.5"/>
</linearGradient>
<linearGradient id="paint22_linear_396_2921" x1="332.114" y1="1" x2="332.114" y2="883.148" gradientUnits="userSpaceOnUse">
<stop stop-color="white"/>
<stop offset="1" stop-color="#666666" stop-opacity="0.5"/>
</linearGradient>
<linearGradient id="paint23_linear_396_2921" x1="332.114" y1="1" x2="332.114" y2="883.148" gradientUnits="userSpaceOnUse">
<stop stop-color="white"/>
<stop offset="1" stop-color="#666666" stop-opacity="0.5"/>
</linearGradient>
<linearGradient id="paint24_linear_396_2921" x1="140.114" y1="-19" x2="140.114" y2="863.148" gradientUnits="userSpaceOnUse">
<stop stop-color="white"/>
<stop offset="1" stop-color="#666666" stop-opacity="0.5"/>
</linearGradient>
<linearGradient id="paint25_linear_396_2921" x1="140.114" y1="-19" x2="140.114" y2="863.148" gradientUnits="userSpaceOnUse">
<stop stop-color="white"/>
<stop offset="1" stop-color="#666666" stop-opacity="0.5"/>
</linearGradient>
<linearGradient id="paint26_linear_396_2921" x1="140.114" y1="-19" x2="140.114" y2="863.148" gradientUnits="userSpaceOnUse">
<stop stop-color="white"/>
<stop offset="1" stop-color="#666666" stop-opacity="0.5"/>
</linearGradient>
<linearGradient id="paint27_linear_396_2921" x1="140.114" y1="-19" x2="140.114" y2="863.148" gradientUnits="userSpaceOnUse">
<stop stop-color="white"/>
<stop offset="1" stop-color="#666666" stop-opacity="0.5"/>
</linearGradient>
<linearGradient id="paint28_linear_396_2921" x1="44.1143" y1="-59" x2="44.1143" y2="823.148" gradientUnits="userSpaceOnUse">
<stop stop-color="white"/>
<stop offset="1" stop-color="#666666" stop-opacity="0.5"/>
</linearGradient>
<linearGradient id="paint29_linear_396_2921" x1="44.1143" y1="-59" x2="44.1143" y2="823.148" gradientUnits="userSpaceOnUse">
<stop stop-color="white"/>
<stop offset="1" stop-color="#666666" stop-opacity="0.5"/>
</linearGradient>
<linearGradient id="paint30_linear_396_2921" x1="44.1143" y1="-59" x2="44.1143" y2="823.148" gradientUnits="userSpaceOnUse">
<stop stop-color="white"/>
<stop offset="1" stop-color="#666666" stop-opacity="0.5"/>
</linearGradient>
<linearGradient id="paint31_linear_396_2921" x1="44.1143" y1="-59" x2="44.1143" y2="823.148" gradientUnits="userSpaceOnUse">
<stop stop-color="white"/>
<stop offset="1" stop-color="#666666" stop-opacity="0.5"/>
</linearGradient>
<linearGradient id="paint32_linear_396_2921" x1="620.114" y1="-40" x2="620.114" y2="842.148" gradientUnits="userSpaceOnUse">
<stop stop-color="white"/>
<stop offset="1" stop-color="#666666" stop-opacity="0.5"/>
</linearGradient>
<linearGradient id="paint33_linear_396_2921" x1="620.114" y1="-40" x2="620.114" y2="842.148" gradientUnits="userSpaceOnUse">
<stop stop-color="white"/>
<stop offset="1" stop-color="#666666" stop-opacity="0.5"/>
</linearGradient>
<linearGradient id="paint34_linear_396_2921" x1="620.114" y1="-40" x2="620.114" y2="842.148" gradientUnits="userSpaceOnUse">
<stop stop-color="white"/>
<stop offset="1" stop-color="#666666" stop-opacity="0.5"/>
</linearGradient>
<linearGradient id="paint35_linear_396_2921" x1="620.114" y1="-40" x2="620.114" y2="842.148" gradientUnits="userSpaceOnUse">
<stop stop-color="white"/>
<stop offset="1" stop-color="#666666" stop-opacity="0.5"/>
</linearGradient>
<linearGradient id="paint36_linear_396_2921" x1="716.114" y1="20" x2="716.114" y2="902.148" gradientUnits="userSpaceOnUse">
<stop stop-color="white"/>
<stop offset="1" stop-color="#666666" stop-opacity="0.5"/>
</linearGradient>
<linearGradient id="paint37_linear_396_2921" x1="716.114" y1="20" x2="716.114" y2="902.148" gradientUnits="userSpaceOnUse">
<stop stop-color="white"/>
<stop offset="1" stop-color="#666666" stop-opacity="0.5"/>
</linearGradient>
<linearGradient id="paint38_linear_396_2921" x1="716.114" y1="20" x2="716.114" y2="902.148" gradientUnits="userSpaceOnUse">
<stop stop-color="white"/>
<stop offset="1" stop-color="#666666" stop-opacity="0.5"/>
</linearGradient>
<linearGradient id="paint39_linear_396_2921" x1="716.114" y1="20" x2="716.114" y2="902.148" gradientUnits="userSpaceOnUse">
<stop stop-color="white"/>
<stop offset="1" stop-color="#666666" stop-opacity="0.5"/>
</linearGradient>
<linearGradient id="paint40_linear_396_2921" x1="524.114" y1="0" x2="524.114" y2="882.148" gradientUnits="userSpaceOnUse">
<stop stop-color="white"/>
<stop offset="1" stop-color="#666666" stop-opacity="0.5"/>
</linearGradient>
<linearGradient id="paint41_linear_396_2921" x1="524.114" y1="0" x2="524.114" y2="882.148" gradientUnits="userSpaceOnUse">
<stop stop-color="white"/>
<stop offset="1" stop-color="#666666" stop-opacity="0.5"/>
</linearGradient>
<linearGradient id="paint42_linear_396_2921" x1="524.114" y1="0" x2="524.114" y2="882.148" gradientUnits="userSpaceOnUse">
<stop stop-color="white"/>
<stop offset="1" stop-color="#666666" stop-opacity="0.5"/>
</linearGradient>
<linearGradient id="paint43_linear_396_2921" x1="524.114" y1="0" x2="524.114" y2="882.148" gradientUnits="userSpaceOnUse">
<stop stop-color="white"/>
<stop offset="1" stop-color="#666666" stop-opacity="0.5"/>
</linearGradient>
<linearGradient id="paint44_linear_396_2921" x1="428.114" y1="-40" x2="428.114" y2="842.148" gradientUnits="userSpaceOnUse">
<stop stop-color="white"/>
<stop offset="1" stop-color="#666666" stop-opacity="0.5"/>
</linearGradient>
<linearGradient id="paint45_linear_396_2921" x1="428.114" y1="-40" x2="428.114" y2="842.148" gradientUnits="userSpaceOnUse">
<stop stop-color="white"/>
<stop offset="1" stop-color="#666666" stop-opacity="0.5"/>
</linearGradient>
<linearGradient id="paint46_linear_396_2921" x1="428.114" y1="-40" x2="428.114" y2="842.148" gradientUnits="userSpaceOnUse">
<stop stop-color="white"/>
<stop offset="1" stop-color="#666666" stop-opacity="0.5"/>
</linearGradient>
<linearGradient id="paint47_linear_396_2921" x1="428.114" y1="-40" x2="428.114" y2="842.148" gradientUnits="userSpaceOnUse">
<stop stop-color="white"/>
<stop offset="1" stop-color="#666666" stop-opacity="0.5"/>
</linearGradient>
<linearGradient id="paint48_linear_396_2921" x1="1004.11" y1="-46" x2="1004.11" y2="836.148" gradientUnits="userSpaceOnUse">
<stop stop-color="white"/>
<stop offset="1" stop-color="#666666" stop-opacity="0.5"/>
</linearGradient>
<linearGradient id="paint49_linear_396_2921" x1="1004.11" y1="-46" x2="1004.11" y2="836.148" gradientUnits="userSpaceOnUse">
<stop stop-color="white"/>
<stop offset="1" stop-color="#666666" stop-opacity="0.5"/>
</linearGradient>
<linearGradient id="paint50_linear_396_2921" x1="1004.11" y1="-46" x2="1004.11" y2="836.148" gradientUnits="userSpaceOnUse">
<stop stop-color="white"/>
<stop offset="1" stop-color="#666666" stop-opacity="0.5"/>
</linearGradient>
<linearGradient id="paint51_linear_396_2921" x1="1004.11" y1="-46" x2="1004.11" y2="836.148" gradientUnits="userSpaceOnUse">
<stop stop-color="white"/>
<stop offset="1" stop-color="#666666" stop-opacity="0.5"/>
</linearGradient>
<linearGradient id="paint52_linear_396_2921" x1="1100.11" y1="14" x2="1100.11" y2="896.148" gradientUnits="userSpaceOnUse">
<stop stop-color="white"/>
<stop offset="1" stop-color="#666666" stop-opacity="0.5"/>
</linearGradient>
<linearGradient id="paint53_linear_396_2921" x1="1100.11" y1="14" x2="1100.11" y2="896.148" gradientUnits="userSpaceOnUse">
<stop stop-color="white"/>
<stop offset="1" stop-color="#666666" stop-opacity="0.5"/>
</linearGradient>
<linearGradient id="paint54_linear_396_2921" x1="1100.11" y1="14" x2="1100.11" y2="896.148" gradientUnits="userSpaceOnUse">
<stop stop-color="white"/>
<stop offset="1" stop-color="#666666" stop-opacity="0.5"/>
</linearGradient>
<linearGradient id="paint55_linear_396_2921" x1="1100.11" y1="14" x2="1100.11" y2="896.148" gradientUnits="userSpaceOnUse">
<stop stop-color="white"/>
<stop offset="1" stop-color="#666666" stop-opacity="0.5"/>
</linearGradient>
<linearGradient id="paint56_linear_396_2921" x1="908.114" y1="-6" x2="908.114" y2="876.148" gradientUnits="userSpaceOnUse">
<stop stop-color="white"/>
<stop offset="1" stop-color="#666666" stop-opacity="0.5"/>
</linearGradient>
<linearGradient id="paint57_linear_396_2921" x1="908.114" y1="-6" x2="908.114" y2="876.148" gradientUnits="userSpaceOnUse">
<stop stop-color="white"/>
<stop offset="1" stop-color="#666666" stop-opacity="0.5"/>
</linearGradient>
<linearGradient id="paint58_linear_396_2921" x1="908.114" y1="-6" x2="908.114" y2="876.148" gradientUnits="userSpaceOnUse">
<stop stop-color="white"/>
<stop offset="1" stop-color="#666666" stop-opacity="0.5"/>
</linearGradient>
<linearGradient id="paint59_linear_396_2921" x1="908.114" y1="-6" x2="908.114" y2="876.148" gradientUnits="userSpaceOnUse">
<stop stop-color="white"/>
<stop offset="1" stop-color="#666666" stop-opacity="0.5"/>
</linearGradient>
<linearGradient id="paint60_linear_396_2921" x1="812.114" y1="-46" x2="812.114" y2="836.148" gradientUnits="userSpaceOnUse">
<stop stop-color="white"/>
<stop offset="1" stop-color="#666666" stop-opacity="0.5"/>
</linearGradient>
<linearGradient id="paint61_linear_396_2921" x1="812.114" y1="-46" x2="812.114" y2="836.148" gradientUnits="userSpaceOnUse">
<stop stop-color="white"/>
<stop offset="1" stop-color="#666666" stop-opacity="0.5"/>
</linearGradient>
<linearGradient id="paint62_linear_396_2921" x1="812.114" y1="-46" x2="812.114" y2="836.148" gradientUnits="userSpaceOnUse">
<stop stop-color="white"/>
<stop offset="1" stop-color="#666666" stop-opacity="0.5"/>
</linearGradient>
<linearGradient id="paint63_linear_396_2921" x1="812.114" y1="-46" x2="812.114" y2="836.148" gradientUnits="userSpaceOnUse">
<stop stop-color="white"/>
<stop offset="1" stop-color="#666666" stop-opacity="0.5"/>
</linearGradient>
<linearGradient id="paint64_linear_396_2921" x1="750" y1="0" x2="750" y2="855" gradientUnits="userSpaceOnUse">
<stop offset="0.394404" stop-color="white"/>
<stop offset="1" stop-color="white" stop-opacity="0.25"/>
</linearGradient>
<clipPath id="clip0_396_2921">
<rect width="1500" height="855" fill="white"/>
</clipPath>
<clipPath id="clip1_396_2921">
<rect width="375" height="855" fill="white" transform="translate(1152 -6)"/>
</clipPath>
<clipPath id="clip2_396_2921">
<rect width="375" height="855" fill="white" transform="translate(0 -19)"/>
</clipPath>
<clipPath id="clip3_396_2921">
<rect width="375" height="855" fill="white" transform="translate(384)"/>
</clipPath>
<clipPath id="clip4_396_2921">
<rect width="375" height="855" fill="white" transform="translate(768 -6)"/>
</clipPath>
</defs>
</svg>
