
<svg width="750" height="855" viewBox="750 0 750 855" fill="none" xmlns="http://www.w3.org/2000/svg">
  <style>
    /* Slide Up animation */
    @keyframes slideUp {
      0% {
        transform: translateY(855px); /* Start below the view (matches SVG height) */
        opacity: 0;
      }
      100% {
        transform: translateY(0px); /* End at original position */
        opacity: 1;
      }
    }

    /* Sway animation */
    @keyframes sway {
      0% { transform: rotate(0deg); }
      50% { transform: rotate(1deg); } /* Keep sway subtle */
      100% { transform: rotate(0deg); }
    }

    /* Apply animations to bamboo sections */
    g[clip-path="url(#clip3_381_93)"] {
      animation:
        slideUp 1.8s ease-out forwards,
        sway 6s ease-in-out infinite 1.8s;
      transform-origin: center bottom;
    }

    g[clip-path="url(#clip4_381_93)"] {
      animation:
        slideUp 2.1s ease-out forwards,
        sway 6s ease-in-out infinite 2.1s;
      transform-origin: center bottom;
    }
  </style>
  <g clip-path="url(#clip0_381_93)">
    <g clip-path="url(#clip3_381_93)">
      <path fill-rule="evenodd" clip-rule="evenodd" d="M1064.02 68.0298C1064.96 62.8378 1059.69 58.7222 1054.87 60.8873L1028.32 72.8303C1016.34 76.1197 1002.95 85.4834 992.137 99.3168C973.596 123.034 969.631 150.901 983.28 161.559C996.93 172.216 1023.02 161.629 1041.57 137.912C1051.52 125.178 1057.27 111.248 1058.35 99.4279L1064.02 68.0298ZM1042.88 89.0221L1000.98 142.621L996.414 139.056L1038.32 85.4566L1042.88 89.0221Z" fill="#00C39C"/>
      <path d="M971.671 236.006L884.799 239.04L877.776 37.9047L964.647 34.8711L971.671 236.006Z" fill="#00C39C"/>
      <path d="M876.968 24.0337L963.769 10.4522L967.549 118.698L880.38 121.742L876.968 24.0337Z" fill="#00C39C"/>
      <path fill-rule="evenodd" clip-rule="evenodd" d="M1080.18 530.748C1081.12 525.556 1075.85 521.44 1071.03 523.605L1044.48 535.548C1032.49 538.838 1019.11 548.201 1008.3 562.035C989.754 585.752 985.79 613.619 999.439 624.276C1013.09 634.934 1039.18 624.347 1057.72 600.63C1067.68 587.896 1073.43 573.966 1074.51 562.146L1080.18 530.748ZM1059.04 551.74L1017.14 605.339L1012.57 601.773L1054.47 548.174L1059.04 551.74Z" fill="#00C39C"/>
      <path d="M987.83 698.724L900.958 701.758L893.935 500.623L980.806 497.589L987.83 698.724Z" fill="#00C39C"/>
      <path d="M893.128 486.752L979.928 473.17L983.708 581.417L896.54 584.461L893.128 486.752Z" fill="#00C39C"/>
    </g>
    <g clip-path="url(#clip4_381_93)">
      <path fill-rule="evenodd" clip-rule="evenodd" d="M1170.16 312.993C1169.04 307.837 1174.16 303.54 1179.05 305.536L1206 316.545C1218.09 319.414 1231.8 328.305 1243.09 341.752C1262.45 364.808 1267.38 392.52 1254.11 403.647C1240.84 414.774 1214.39 405.105 1195.04 382.049C1184.64 369.67 1178.41 355.95 1176.92 344.174L1170.16 312.993ZM1192.01 333.235L1235.76 385.339L1240.2 381.616L1196.45 329.512L1192.01 333.235Z" fill="#00C39C"/>
      <path d="M1268.73 253.001H1355.65V454.258H1268.73V253.001Z" fill="#00C39C"/>
      <path d="M1355.97 468.149L1268.75 478.693V370.381H1355.97V468.149Z" fill="#00C39C"/>
      <path fill-rule="evenodd" clip-rule="evenodd" d="M1170.16 775.993C1169.04 770.837 1174.16 766.54 1179.05 768.536L1206 779.545C1218.09 782.414 1231.8 791.305 1243.09 804.752C1262.45 827.808 1267.38 855.52 1254.11 866.647C1240.84 877.774 1214.39 868.105 1195.04 845.049C1184.64 832.67 1178.41 818.95 1176.92 807.174L1170.16 775.993ZM1192.01 796.235L1235.76 848.339L1240.2 844.616L1196.45 792.512L1192.01 796.235Z" fill="#00C39C"/>
      <path d="M1268.73 716.001H1355.65V917.258H1268.73V716.001Z" fill="#00C39C"/>
      <path d="M1355.97 931.149L1268.75 941.693V833.381H1355.97V931.149Z" fill="#00C39C"/>
    </g>
  </g>
  <defs>
    <clipPath id="clip0_381_93">
      <rect width="750" height="855" fill="white" transform="translate(750)"/>
    </clipPath>
    <clipPath id="clip3_381_93">
      <rect width="375" height="855" fill="white" transform="translate(750 -2)"/>
    </clipPath>
    <clipPath id="clip4_381_93">
      <rect width="375" height="853" fill="white" transform="translate(1125)"/>
    </clipPath>
  </defs>
</svg>
