<svg width="750" height="855" viewBox="0 0 750 855" fill="none" xmlns="http://www.w3.org/2000/svg">
  <style>
    /* Slide Up animation */
    @keyframes slideUp {
      0% {
        transform: translateY(855px);
        opacity: 0;
      }
      100% {
        transform: translateY(0px);
        opacity: 1;
      }
    }

    /* Sway animation */
    @keyframes sway {
      0% { transform: rotate(0deg); }
      50% { transform: rotate(1deg); }
      100% { transform: rotate(0deg); }
    }

    g[clip-path="url(#clip3_381_93)"] {
      animation:
        slideUp 1.8s ease-out forwards,
        sway 6s ease-in-out infinite 1.8s;
      transform-origin: center bottom;
    }

    g[clip-path="url(#clip4_381_93)"] {
      animation:
        slideUp 2.1s ease-out forwards,
        sway 6s ease-in-out infinite 2.1s;
      transform-origin: center bottom;
    }
  </style>
  <g clip-path="url(#clip0_381_93)">
    <g clip-path="url(#clip3_381_93)">
      <path fill-rule="evenodd" clip-rule="evenodd" d="M788.184 313.842C786.887 308.728 791.858 304.254 796.811 306.079L824.132 316.14C836.317 318.586 850.323 326.993 862.076 340.038C882.226 362.404 888.125 389.927 875.253 401.511C862.38 413.094 835.61 404.353 815.46 381.987C804.641 369.979 797.933 356.484 796.03 344.768L788.184 313.842ZM810.737 333.308L856.275 383.854L860.581 379.979L815.043 329.433L810.737 333.308Z" fill="#00C39C"/>
      <path d="M884.601 250.446L971.473 247.413L978.496 448.547L891.625 451.581L884.601 250.446Z" fill="#00C39C"/>
      <path d="M979.304 462.418L892.503 476L888.723 367.754L975.892 364.71L979.304 462.418Z" fill="#00C39C"/>
      <path fill-rule="evenodd" clip-rule="evenodd" d="M804.343 776.561C803.045 771.447 808.016 766.974 812.969 768.798L840.29 778.86C852.476 781.305 866.482 789.712 878.235 802.758C898.385 825.124 904.283 852.646 891.411 864.23C878.538 875.814 851.768 867.073 831.618 844.707C820.8 832.699 814.091 819.204 812.188 807.488L804.343 776.561ZM826.895 796.028L872.433 846.574L876.739 842.698L831.202 792.153L826.895 796.028Z" fill="#00C39C"/>
      <path d="M900.76 713.166L987.631 710.132L994.655 911.267L907.783 914.301L900.76 713.166Z" fill="#00C39C"/>
      <path d="M995.462 925.138L908.662 938.72L904.882 830.473L992.05 827.429L995.462 925.138Z" fill="#00C39C"/>
      <path fill-rule="evenodd" clip-rule="evenodd" d="M1064.02 68.0298C1064.96 62.8378 1059.69 58.7222 1054.87 60.8873L1028.32 72.8303C1016.34 76.1197 1002.95 85.4834 992.137 99.3168C973.596 123.034 969.631 150.901 983.28 161.559C996.93 172.216 1023.02 161.629 1041.57 137.912C1051.52 125.178 1057.27 111.248 1058.35 99.4279L1064.02 68.0298ZM1042.88 89.0221L1000.98 142.621L996.414 139.056L1038.32 85.4566L1042.88 89.0221Z" fill="#00C39C"/>
      <path d="M971.671 236.006L884.799 239.04L877.776 37.9047L964.647 34.8711L971.671 236.006Z" fill="#00C39C"/>
      <path d="M876.968 24.0337L963.769 10.4522L967.549 118.698L880.38 121.742L876.968 24.0337Z" fill="#00C39C"/>
      <path fill-rule="evenodd" clip-rule="evenodd" d="M1080.18 530.748C1081.12 525.556 1075.85 521.44 1071.03 523.605L1044.48 535.548C1032.49 538.838 1019.11 548.201 1008.3 562.035C989.754 585.752 985.79 613.619 999.439 624.276C1013.09 634.934 1039.18 624.347 1057.72 600.63C1067.68 587.896 1073.43 573.966 1074.51 562.146L1080.18 530.748ZM1059.04 551.74L1017.14 605.339L1012.57 601.773L1054.47 548.174L1059.04 551.74Z" fill="#00C39C"/>
      <path d="M987.83 698.724L900.958 701.758L893.935 500.623L980.806 497.589L987.83 698.724Z" fill="#00C39C"/>
      <path d="M893.128 486.752L979.928 473.17L983.708 581.417L896.54 584.461L893.128 486.752Z" fill="#00C39C"/>
    </g>
    <g clip-path="url(#clip4_381_93)">
      <path fill-rule="evenodd" clip-rule="evenodd" d="M1170.16 312.993C1169.04 307.837 1174.16 303.54 1179.05 305.536L1206 316.545C1218.09 319.414 1231.8 328.305 1243.09 341.752C1262.45 364.808 1267.38 392.52 1254.11 403.647C1240.84 414.774 1214.39 405.105 1195.04 382.049C1184.64 369.67 1178.41 355.95 1176.92 344.174L1170.16 312.993ZM1192.01 333.235L1235.76 385.339L1240.2 381.616L1196.45 329.512L1192.01 333.235Z" fill="#00C39C"/>
      <path d="M1268.73 253.001H1355.65V454.258H1268.73V253.001Z" fill="#00C39C"/>
      <path d="M1355.97 468.149L1268.75 478.693V370.381H1355.97V468.149Z" fill="#00C39C"/>
      <path fill-rule="evenodd" clip-rule="evenodd" d="M1170.16 775.993C1169.04 770.837 1174.16 766.54 1179.05 768.536L1206 779.545C1218.09 782.414 1231.8 791.305 1243.09 804.752C1262.45 827.808 1267.38 855.52 1254.11 866.647C1240.84 877.774 1214.39 868.105 1195.04 845.049C1184.64 832.67 1178.41 818.95 1176.92 807.174L1170.16 775.993ZM1192.01 796.235L1235.76 848.339L1240.2 844.616L1196.45 792.512L1192.01 796.235Z" fill="#00C39C"/>
      <path d="M1268.73 716.001H1355.65V917.258H1268.73V716.001Z" fill="#00C39C"/>
      <path d="M1355.97 931.149L1268.75 941.693V833.381H1355.97V931.149Z" fill="#00C39C"/>
      <path fill-rule="evenodd" clip-rule="evenodd" d="M1454.4 76.9566C1455.52 71.8005 1450.4 67.5034 1445.51 69.4992L1418.56 80.5083C1406.46 83.3774 1392.76 92.2682 1381.47 105.716C1362.11 128.771 1357.18 156.483 1370.45 167.611C1383.72 178.738 1410.17 169.068 1429.52 146.013C1439.92 133.634 1446.15 119.913 1447.64 108.138L1454.4 76.9566ZM1432.54 97.1984L1388.8 149.303L1384.36 145.58L1428.1 93.4756L1432.54 97.1984Z" fill="#00C39C"/>
      <path d="M1356.25 241.608H1269.32V40.3502H1356.25V241.608Z" fill="#00C39C"/>
      <path d="M1269 26.4594L1356.22 15.9155V124.228H1269V26.4594Z" fill="#00C39C"/>
      <path fill-rule="evenodd" clip-rule="evenodd" d="M1454.4 539.957C1455.52 534.8 1450.4 530.503 1445.51 532.499L1418.56 543.508C1406.46 546.377 1392.76 555.268 1381.47 568.716C1362.11 591.771 1357.18 619.483 1370.45 630.611C1383.72 641.738 1410.17 632.068 1429.52 609.013C1439.92 596.634 1446.15 582.913 1447.64 571.138L1454.4 539.957ZM1432.54 560.198L1388.8 612.303L1384.36 608.58L1428.1 556.476L1432.54 560.198Z" fill="#00C39C"/>
      <path d="M1356.25 704.608H1269.32V503.35H1356.25V704.608Z" fill="#00C39C"/>
      <path d="M1269 489.459L1356.22 478.916V587.228H1269V489.459Z" fill="#00C39C"/>
    </g>
  </g>
  <defs>
    <clipPath id="clip0_381_93">
      <rect width="750" height="855" fill="white"/>
    </clipPath>
    <clipPath id="clip3_381_93">
      <rect width="375" height="855" fill="white" transform="translate(0 -2)"/>
    </clipPath>
    <clipPath id="clip4_381_93">
      <rect width="375" height="853" fill="white" transform="translate(375)"/>
    </clipPath>
  </defs>
</svg>
