<svg width="1500" height="855" viewBox="-100 -100 1700 1055" fill="none" xmlns="http://www.w3.org/2000/svg">
<g clip-path="url(#clip0_400_3225)">
<g clip-path="url(#clip1_400_3225)">
<path d="M171.85 321.136L142.277 320.104L139.886 388.576L169.459 389.609L171.85 321.136Z" fill="#00C39C"/>
<path d="M139.611 393.298L169.16 397.922L170.447 361.071L140.772 360.035L139.611 393.298Z" fill="#00C39C"/>
<path d="M166.35 478.66L136.776 477.627L134.385 546.1L163.958 547.133L166.35 478.66Z" fill="#00C39C"/>
<path d="M134.11 550.822L163.659 555.446L164.946 518.595L135.271 517.559L134.11 550.822Z" fill="#00C39C"/>
<path fill-rule="evenodd" clip-rule="evenodd" d="M101.38 491.79C101.061 490.022 102.855 488.621 104.494 489.358L113.533 493.424C117.613 494.544 122.17 497.732 125.852 502.441C132.164 510.515 133.513 520.002 128.867 523.63C124.22 527.258 115.336 523.654 109.025 515.58C105.636 511.245 103.678 506.503 103.31 502.479L101.38 491.79ZM108.577 498.936L122.841 517.183L124.395 515.969L110.131 497.723L108.577 498.936Z" fill="#00C39C"/>
<path d="M142.209 316.22L171.783 317.253L174.174 248.781L144.6 247.748L142.209 316.22Z" fill="#00C39C"/>
<path d="M174.449 244.058L144.899 239.435L143.612 276.285L173.287 277.322L174.449 244.058Z" fill="#00C39C"/>
<path d="M136.708 473.744L166.282 474.777L168.673 406.304L139.099 405.272L136.708 473.744Z" fill="#00C39C"/>
<path d="M168.948 401.582L139.398 396.959L138.111 433.809L167.786 434.845L168.948 401.582Z" fill="#00C39C"/>
<path fill-rule="evenodd" clip-rule="evenodd" d="M215.667 27.91C216.109 26.169 214.416 24.6462 212.73 25.2672L203.429 28.6925C199.281 29.525 194.513 32.387 190.512 36.8281C183.652 44.4422 181.644 53.8117 186.026 57.7552C190.409 61.6986 199.522 58.723 206.382 51.1089C210.065 47.0209 212.348 42.4268 212.996 38.4382L215.667 27.91ZM207.989 34.537L192.487 51.7444L191.021 50.4251L206.523 33.2177L207.989 34.537Z" fill="#00C39C"/>
<path d="M182.844 6.32814L153.27 5.2954L150.879 73.7681L180.453 74.8008L182.844 6.32814Z" fill="#00C39C"/>
<path d="M150.604 78.4902L180.154 83.1137L181.44 46.2633L151.766 45.2271L150.604 78.4902Z" fill="#00C39C"/>
<path d="M177.343 163.852L147.769 162.819L145.378 231.292L174.952 232.324L177.343 163.852Z" fill="#00C39C"/>
<path d="M145.103 236.014L174.653 240.637L175.94 203.787L146.265 202.751L145.103 236.014Z" fill="#00C39C"/>
<path fill-rule="evenodd" clip-rule="evenodd" d="M112.373 176.982C112.054 175.214 113.848 173.813 115.487 174.55L124.526 178.616C128.607 179.736 133.163 182.924 136.845 187.633C143.157 195.707 144.507 205.194 139.86 208.822C135.213 212.45 126.33 208.846 120.018 200.772C116.629 196.437 114.671 191.695 114.303 187.671L112.373 176.982ZM119.57 184.128L133.834 202.375L135.389 201.161L121.124 182.915L119.57 184.128Z" fill="#00C39C"/>
<path d="M153.202 1.41237L182.776 2.44511L185.167 -66.0275L155.593 -67.0603L153.202 1.41237Z" fill="#00C39C"/>
<path d="M185.442 -70.7497L155.892 -75.3732L154.606 -38.5228L184.28 -37.4865L185.442 -70.7497Z" fill="#00C39C"/>
<path d="M147.701 158.936L177.275 159.969L179.666 91.4962L150.093 90.4635L147.701 158.936Z" fill="#00C39C"/>
<path d="M179.941 86.7741L150.392 82.1505L149.105 119.001L178.78 120.037L179.941 86.7741Z" fill="#00C39C"/>
<path d="M160.857 635.944L131.283 634.912L128.892 703.384L158.466 704.417L160.857 635.944Z" fill="#00C39C"/>
<path d="M128.617 708.106L158.167 712.73L159.454 675.88L129.779 674.843L128.617 708.106Z" fill="#00C39C"/>
<path fill-rule="evenodd" clip-rule="evenodd" d="M188.18 815.05C188.621 813.309 186.929 811.786 185.243 812.407L175.942 815.833C171.793 816.665 167.025 819.527 163.024 823.968C156.165 831.582 154.157 840.952 158.539 844.895C162.921 848.839 172.034 845.863 178.894 838.249C182.577 834.161 184.861 829.567 185.509 825.578L188.18 815.05ZM180.502 821.677L164.999 838.884L163.533 837.565L179.036 820.358L180.502 821.677Z" fill="#00C39C"/>
<path d="M155.356 793.468L125.782 792.435L123.391 860.908L152.965 861.941L155.356 793.468Z" fill="#00C39C"/>
<path d="M123.116 865.63L152.666 870.254L153.953 833.403L124.278 832.367L123.116 865.63Z" fill="#00C39C"/>
<path d="M131.216 631.029L160.789 632.061L163.18 563.589L133.607 562.556L131.216 631.029Z" fill="#00C39C"/>
<path d="M163.455 558.867L133.906 554.243L132.619 591.093L162.294 592.13L163.455 558.867Z" fill="#00C39C"/>
<path d="M125.715 788.552L155.288 789.585L157.68 721.112L128.106 720.08L125.715 788.552Z" fill="#00C39C"/>
<path d="M157.954 716.39L128.405 711.767L127.118 748.617L156.793 749.653L157.954 716.39Z" fill="#00C39C"/>
</g>
<g clip-path="url(#clip2_400_3225)">
<path d="M34.6094 393.129H64.2011V461.644H34.6094V393.129Z" fill="#00C39C"/>
<path d="M64.3109 466.372L34.6181 469.962V433.089H64.3109V466.372Z" fill="#00C39C"/>
<path d="M34.6094 550.749H64.2011V619.263H34.6094V550.749Z" fill="#00C39C"/>
<path d="M64.3109 623.992L34.618 627.582V590.709H64.3109V623.992Z" fill="#00C39C"/>
<path fill-rule="evenodd" clip-rule="evenodd" d="M99.0811 566.138C99.4617 564.383 97.7174 562.92 96.0539 563.6L86.8783 567.347C82.7614 568.324 78.0962 571.351 74.2525 575.929C67.6628 583.778 65.9828 593.212 70.5 597C75.0172 600.788 84.0212 597.496 90.6109 589.647C94.149 585.433 96.2711 580.762 96.7794 576.753L99.0811 566.138ZM91.6395 573.029L76.747 590.767L75.2358 589.5L90.1283 571.762L91.6395 573.029Z" fill="#00C39C"/>
<path d="M64.4042 389.251H34.8125V320.736H64.4042V389.251Z" fill="#00C39C"/>
<path d="M34.7026 316.008L64.3955 312.418V349.291H34.7026V316.008Z" fill="#00C39C"/>
<path d="M64.4042 546.871H34.8125V478.356H64.4042V546.871Z" fill="#00C39C"/>
<path d="M34.7026 473.627L64.3955 470.038V506.911H34.7026V473.627Z" fill="#00C39C"/>
<path fill-rule="evenodd" clip-rule="evenodd" d="M1.05283 98.5524C0.672241 96.797 2.41655 95.3342 4.08011 96.0136L13.2556 99.7615C17.3725 100.738 22.0378 103.765 25.8814 108.343C32.4712 116.192 34.1512 125.626 29.634 129.414C25.1167 133.202 16.1128 129.91 9.52308 122.061C5.98499 117.847 3.86283 113.176 3.3546 109.167L1.05283 98.5524ZM8.49447 105.443L23.387 123.181L24.8982 121.914L10.0057 104.176L8.49447 105.443Z" fill="#00C39C"/>
<path d="M34.6095 78.1292H64.2012V146.644H34.6095V78.1292Z" fill="#00C39C"/>
<path d="M64.311 151.372L34.6181 154.962V118.089H64.311V151.372Z" fill="#00C39C"/>
<path d="M34.6095 235.749H64.2012V304.263H34.6095V235.749Z" fill="#00C39C"/>
<path d="M64.311 308.992L34.6181 312.582V275.709H64.311V308.992Z" fill="#00C39C"/>
<path fill-rule="evenodd" clip-rule="evenodd" d="M99.0812 251.138C99.4618 249.383 97.7175 247.92 96.054 248.6L86.8784 252.347C82.7615 253.324 78.0962 256.351 74.2526 260.929C67.6628 268.778 65.9829 278.212 70.5001 282C75.0173 285.788 84.0212 282.496 90.611 274.647C94.1491 270.433 96.2712 265.762 96.7795 261.753L99.0812 251.138ZM91.6396 258.029L76.7471 275.767L75.2358 274.5L90.1284 256.762L91.6396 258.029Z" fill="#00C39C"/>
<path d="M64.4043 74.2509H34.8125V5.73648H64.4043V74.2509Z" fill="#00C39C"/>
<path d="M34.7027 1.00763L64.3956 -2.58185V34.291H34.7027V1.00763Z" fill="#00C39C"/>
<path d="M64.4043 231.871H34.8125V163.356H64.4043V231.871Z" fill="#00C39C"/>
<path d="M34.7027 158.627L64.3956 155.038V191.911H34.7027V158.627Z" fill="#00C39C"/>
<path fill-rule="evenodd" clip-rule="evenodd" d="M1.05283 728.552C0.672241 726.797 2.41655 725.334 4.08011 726.014L13.2556 729.761C17.3725 730.738 22.0378 733.765 25.8814 738.343C32.4712 746.192 34.1512 755.626 29.634 759.414C25.1167 763.202 16.1128 759.91 9.52308 752.061C5.98499 747.847 3.86283 743.176 3.3546 739.167L1.05283 728.552ZM8.49447 735.443L23.387 753.181L24.8982 751.914L10.0057 734.176L8.49447 735.443Z" fill="#00C39C"/>
<path d="M34.6095 708.129H64.2012V776.644H34.6095V708.129Z" fill="#00C39C"/>
<path d="M64.311 781.372L34.6181 784.962V748.089H64.311V781.372Z" fill="#00C39C"/>
<path fill-rule="evenodd" clip-rule="evenodd" d="M1.05283 886.172C0.672241 884.417 2.41655 882.954 4.08011 883.633L13.2556 887.381C17.3725 888.358 22.0378 891.385 25.8814 895.963C32.4712 903.812 34.1512 913.245 29.634 917.034C25.1167 920.822 16.1128 917.53 9.52308 909.681C5.98499 905.467 3.86283 900.796 3.3546 896.787L1.05283 886.172ZM8.49447 893.063L23.387 910.801L24.8982 909.534L10.0057 891.796L8.49447 893.063Z" fill="#00C39C"/>
<path d="M34.6095 865.749H64.2012V934.263H34.6095V865.749Z" fill="#00C39C"/>
<path d="M64.311 938.992L34.6181 942.582V905.709H64.311V938.992Z" fill="#00C39C"/>
<path d="M64.4043 704.251H34.8125V635.736H64.4043V704.251Z" fill="#00C39C"/>
<path d="M34.7027 631.008L64.3956 627.418V664.291H34.7027V631.008Z" fill="#00C39C"/>
<path d="M64.4043 861.871H34.8125V793.356H64.4043V861.871Z" fill="#00C39C"/>
<path d="M34.7027 788.627L64.3956 785.038V821.911H34.7027V788.627Z" fill="#00C39C"/>
</g>
<g clip-path="url(#clip3_400_3225)">
<path d="M1303.51 313.653L1333.03 311.589L1337.81 379.937L1308.29 382.001L1303.51 313.653Z" fill="#00C39C"/>
<path d="M1338.25 384.646L1308.88 390.298L1306.31 353.515L1335.93 351.444L1338.25 384.646Z" fill="#00C39C"/>
<path d="M1314.5 470.889L1344.02 468.825L1348.8 537.173L1319.28 539.237L1314.5 470.889Z" fill="#00C39C"/>
<path d="M1349.24 541.882L1319.87 547.534L1317.3 510.751L1346.92 508.68L1349.24 541.882Z" fill="#00C39C"/>
<path fill-rule="evenodd" clip-rule="evenodd" d="M1379.89 481.744C1380.15 479.967 1378.31 478.629 1376.7 479.423L1367.8 483.802C1363.76 485.063 1359.32 488.408 1355.81 493.243C1349.78 501.532 1348.76 511.06 1353.53 514.524C1358.3 517.988 1367.06 514.076 1373.08 505.787C1376.32 501.336 1378.11 496.528 1378.34 492.494L1379.89 481.744ZM1372.95 489.137L1359.33 507.871L1357.73 506.712L1371.35 487.979L1372.95 489.137Z" fill="#00C39C"/>
<path d="M1332.96 307.706L1303.44 309.77L1298.66 241.423L1328.18 239.359L1332.96 307.706Z" fill="#00C39C"/>
<path d="M1298.22 236.713L1327.59 231.061L1330.16 267.844L1300.54 269.915L1298.22 236.713Z" fill="#00C39C"/>
<path d="M1343.96 464.942L1314.44 467.007L1309.66 398.659L1339.18 396.595L1343.96 464.942Z" fill="#00C39C"/>
<path d="M1309.22 393.949L1338.59 388.297L1341.16 425.08L1311.54 427.152L1309.22 393.949Z" fill="#00C39C"/>
<path fill-rule="evenodd" clip-rule="evenodd" d="M1249.49 22.1344C1248.98 20.4099 1250.62 18.8289 1252.33 19.3907L1261.74 22.4893C1265.92 23.1765 1270.78 25.8704 1274.94 30.1691C1282.06 37.5392 1284.39 46.8329 1280.15 50.927C1275.91 55.0209 1266.7 52.3651 1259.58 44.9951C1255.75 41.0381 1253.31 36.5265 1252.52 32.563L1249.49 22.1344ZM1257.39 28.4894L1273.48 45.1453L1274.9 43.7756L1258.81 27.1198L1257.39 28.4894Z" fill="#00C39C"/>
<path d="M1281.54 -0.579857L1311.06 -2.64407L1315.83 65.7034L1286.32 67.7676L1281.54 -0.579857Z" fill="#00C39C"/>
<path d="M1316.27 70.4131L1286.9 76.0651L1284.33 39.282L1313.95 37.2108L1316.27 70.4131Z" fill="#00C39C"/>
<path d="M1292.53 156.656L1322.05 154.592L1326.83 222.94L1297.31 225.004L1292.53 156.656Z" fill="#00C39C"/>
<path d="M1327.27 227.649L1297.9 233.301L1295.33 196.518L1324.95 194.447L1327.27 227.649Z" fill="#00C39C"/>
<path fill-rule="evenodd" clip-rule="evenodd" d="M1357.92 167.511C1358.18 165.733 1356.33 164.396 1354.72 165.19L1345.83 169.568C1341.79 170.83 1337.35 174.175 1333.83 179.01C1327.81 187.299 1326.79 196.827 1331.56 200.291C1336.33 203.755 1345.08 199.843 1351.11 191.553C1354.34 187.103 1356.14 182.295 1356.36 178.261L1357.92 167.511ZM1350.98 174.904L1337.36 193.638L1335.76 192.479L1349.38 173.745L1350.98 174.904Z" fill="#00C39C"/>
<path d="M1310.99 -6.52627L1281.47 -4.46206L1276.69 -72.8095L1306.21 -74.8738L1310.99 -6.52627Z" fill="#00C39C"/>
<path d="M1276.25 -77.5192L1305.62 -83.1712L1308.19 -46.3882L1278.57 -44.3169L1276.25 -77.5192Z" fill="#00C39C"/>
<path d="M1321.98 150.709L1292.46 152.773L1287.68 84.4259L1317.2 82.3617L1321.98 150.709Z" fill="#00C39C"/>
<path d="M1287.24 79.7162L1316.61 74.0642L1319.19 110.847L1289.57 112.919L1287.24 79.7162Z" fill="#00C39C"/>
<path d="M1325.48 627.887L1355 625.822L1359.78 694.17L1330.26 696.234L1325.48 627.887Z" fill="#00C39C"/>
<path d="M1360.22 698.88L1330.85 704.532L1328.28 667.749L1357.9 665.677L1360.22 698.88Z" fill="#00C39C"/>
<path fill-rule="evenodd" clip-rule="evenodd" d="M1304.43 807.836C1303.93 806.112 1305.56 804.531 1307.27 805.093L1316.68 808.191C1320.86 808.879 1325.72 811.573 1329.88 815.871C1337 823.241 1339.33 832.535 1335.09 836.629C1330.85 840.723 1321.64 838.067 1314.52 830.697C1310.69 826.74 1308.25 822.229 1307.46 818.265L1304.43 807.836ZM1312.33 814.192L1328.42 830.847L1329.84 829.478L1313.75 812.822L1312.33 814.192Z" fill="#00C39C"/>
<path d="M1336.48 785.122L1366 783.058L1370.78 851.406L1341.26 853.47L1336.48 785.122Z" fill="#00C39C"/>
<path d="M1371.22 856.115L1341.85 861.767L1339.27 824.984L1368.89 822.913L1371.22 856.115Z" fill="#00C39C"/>
<path d="M1354.93 621.94L1325.41 624.004L1320.64 555.656L1350.15 553.592L1354.93 621.94Z" fill="#00C39C"/>
<path d="M1320.2 550.947L1349.57 545.295L1352.14 582.078L1322.52 584.149L1320.2 550.947Z" fill="#00C39C"/>
<path d="M1365.93 779.175L1336.41 781.239L1331.63 712.892L1361.15 710.828L1365.93 779.175Z" fill="#00C39C"/>
<path d="M1331.19 708.182L1360.56 702.53L1363.13 739.313L1333.51 741.384L1331.19 708.182Z" fill="#00C39C"/>
</g>
<g clip-path="url(#clip4_400_3225)">
<path d="M1458.56 403.24L1428.97 402.724L1427.78 471.228L1457.36 471.744L1458.56 403.24Z" fill="#00C39C"/>
<path d="M1427.58 475.954L1457.21 480.061L1457.85 443.194L1428.17 442.676L1427.58 475.954Z" fill="#00C39C"/>
<path d="M1455.81 560.836L1426.22 560.32L1425.03 628.823L1454.61 629.34L1455.81 560.836Z" fill="#00C39C"/>
<path d="M1424.83 633.55L1454.46 637.657L1455.1 600.79L1425.41 600.271L1424.83 633.55Z" fill="#00C39C"/>
<path fill-rule="evenodd" clip-rule="evenodd" d="M1391.08 575.098C1390.73 573.336 1392.5 571.904 1394.15 572.612L1403.26 576.52C1407.36 577.568 1411.97 580.676 1415.73 585.32C1422.18 593.283 1423.7 602.745 1419.12 606.453C1414.53 610.162 1405.59 606.714 1399.14 598.751C1395.67 594.476 1393.63 589.769 1393.2 585.752L1391.08 575.098ZM1398.4 582.118L1412.98 600.113L1414.51 598.872L1399.93 580.877L1398.4 582.118Z" fill="#00C39C"/>
<path d="M1428.84 398.843L1458.42 399.359L1459.62 330.855L1430.03 330.339L1428.84 398.843Z" fill="#00C39C"/>
<path d="M1459.81 326.129L1430.19 322.022L1429.54 358.889L1459.23 359.407L1459.81 326.129Z" fill="#00C39C"/>
<path d="M1426.09 556.438L1455.67 556.955L1456.87 488.451L1427.28 487.934L1426.09 556.438Z" fill="#00C39C"/>
<path d="M1457.06 483.725L1427.44 479.617L1426.79 516.485L1456.48 517.003L1457.06 483.725Z" fill="#00C39C"/>
<path fill-rule="evenodd" clip-rule="evenodd" d="M1497.25 109.294C1497.66 107.546 1495.95 106.052 1494.27 106.703L1485.03 110.29C1480.9 111.195 1476.18 114.139 1472.26 118.65C1465.53 126.382 1463.69 135.786 1468.14 139.652C1472.59 143.518 1481.65 140.384 1488.37 132.651C1491.98 128.5 1494.19 123.866 1494.77 119.867L1497.25 109.294ZM1489.69 116.054L1474.49 133.529L1473 132.236L1488.2 114.76L1489.69 116.054Z" fill="#00C39C"/>
<path d="M1464.06 88.2882L1434.47 87.7718L1433.27 156.276L1462.86 156.792L1464.06 88.2882Z" fill="#00C39C"/>
<path d="M1433.08 161.002L1462.71 165.109L1463.35 128.242L1433.66 127.724L1433.08 161.002Z" fill="#00C39C"/>
<path d="M1461.31 245.884L1431.72 245.367L1430.52 313.871L1460.11 314.388L1461.31 245.884Z" fill="#00C39C"/>
<path d="M1430.33 318.598L1459.96 322.705L1460.6 285.838L1430.91 285.319L1430.33 318.598Z" fill="#00C39C"/>
<path fill-rule="evenodd" clip-rule="evenodd" d="M1396.58 260.146C1396.23 258.384 1398 256.952 1399.65 257.66L1408.76 261.568C1412.86 262.616 1417.47 265.724 1421.23 270.368C1427.68 278.331 1429.2 287.793 1424.61 291.501C1420.03 295.21 1411.09 291.762 1404.63 283.799C1401.17 279.524 1399.13 274.816 1398.69 270.799L1396.58 260.146ZM1403.9 267.166L1418.48 285.161L1420.01 283.92L1405.43 265.925L1403.9 267.166Z" fill="#00C39C"/>
<path d="M1434.34 83.8905L1463.92 84.407L1465.12 15.903L1435.53 15.3866L1434.34 83.8905Z" fill="#00C39C"/>
<path d="M1465.31 11.1768L1435.68 7.06967L1435.04 43.9369L1464.73 44.4552L1465.31 11.1768Z" fill="#00C39C"/>
<path d="M1431.58 241.486L1461.17 242.003L1462.37 173.499L1432.78 172.982L1431.58 241.486Z" fill="#00C39C"/>
<path d="M1462.56 168.773L1432.93 164.665L1432.29 201.533L1461.98 202.051L1462.56 168.773Z" fill="#00C39C"/>
<path fill-rule="evenodd" clip-rule="evenodd" d="M1486.26 739.198C1486.67 737.45 1484.95 735.957 1483.28 736.607L1474.04 740.194C1469.9 741.099 1465.18 744.044 1461.26 748.554C1454.54 756.286 1452.69 765.69 1457.14 769.556C1461.59 773.422 1470.65 770.288 1477.38 762.555C1480.99 758.404 1483.19 753.77 1483.77 749.771L1486.26 739.198ZM1478.7 745.958L1463.5 763.433L1462.01 762.14L1477.21 744.664L1478.7 745.958Z" fill="#00C39C"/>
<path d="M1453.06 718.192L1423.48 717.676L1422.28 786.18L1451.87 786.696L1453.06 718.192Z" fill="#00C39C"/>
<path d="M1422.09 790.906L1451.71 795.013L1452.36 758.146L1422.67 757.628L1422.09 790.906Z" fill="#00C39C"/>
<path fill-rule="evenodd" clip-rule="evenodd" d="M1483.51 896.794C1483.92 895.045 1482.2 893.552 1480.52 894.203L1471.28 897.79C1467.15 898.695 1462.43 901.639 1458.51 906.15C1451.79 913.882 1449.94 923.285 1454.39 927.152C1458.84 931.018 1467.9 927.884 1474.63 920.151C1478.24 916 1480.44 911.366 1481.02 907.367L1483.51 896.794ZM1475.95 903.554L1460.75 921.029L1459.26 919.736L1474.46 902.26L1475.95 903.554Z" fill="#00C39C"/>
<path d="M1450.31 875.788L1420.72 875.272L1419.53 943.776L1449.12 944.292L1450.31 875.788Z" fill="#00C39C"/>
<path d="M1419.34 948.502L1448.96 952.609L1449.61 915.742L1419.92 915.223L1419.34 948.502Z" fill="#00C39C"/>
<path d="M1423.34 713.795L1452.93 714.311L1454.12 645.807L1424.54 645.291L1423.34 713.795Z" fill="#00C39C"/>
<path d="M1454.32 641.081L1424.69 636.974L1424.05 673.841L1453.73 674.359L1454.32 641.081Z" fill="#00C39C"/>
<path d="M1420.59 871.39L1450.18 871.907L1451.37 803.403L1421.78 802.886L1420.59 871.39Z" fill="#00C39C"/>
<path d="M1451.56 798.677L1421.94 794.57L1421.3 831.437L1450.98 831.955L1451.56 798.677Z" fill="#00C39C"/>
</g>
</g>
<defs>
<clipPath id="clip0_400_3225">
<rect width="1500" height="855" fill="white"/>
</clipPath>
<clipPath id="clip1_400_3225">
<rect width="150" height="855" fill="white" transform="translate(100)"/>
</clipPath>
<clipPath id="clip2_400_3225">
<rect width="100" height="855" fill="white"/>
</clipPath>
<clipPath id="clip3_400_3225">
<rect width="150" height="855" fill="white" transform="translate(1245)"/>
</clipPath>
<clipPath id="clip4_400_3225">
<rect width="100" height="855" fill="white" transform="matrix(-0.999848 -0.0174524 -0.0174524 0.999848 1500.02 10.7744)"/>
</clipPath>
</defs>
</svg>
