<svg width="1500" height="855" viewBox="0 0 1500 855" fill="none" xmlns="http://www.w3.org/2000/svg">
<g clip-path="url(#clip0_381_93)">
<g clip-path="url(#clip1_381_93)">
<path fill-rule="evenodd" clip-rule="evenodd" d="M29.1552 312.992C28.0372 307.836 33.1611 303.539 38.0477 305.535L65.0003 316.544C77.0935 319.413 90.7975 328.304 102.088 341.751C121.445 364.807 126.38 392.519 113.111 403.646C99.8417 414.773 73.3931 405.104 54.0361 382.048C43.6432 369.67 37.4094 355.949 35.9165 344.173L29.1552 312.992ZM51.0146 333.234L94.7606 385.338L99.1998 381.615L55.4538 329.511L51.0146 333.234Z" fill="#00C39C"/>
<path d="M127.726 253H214.65V454.257H127.726V253Z" fill="#00C39C"/>
<path d="M214.973 468.148L127.752 478.692V370.38H214.973V468.148Z" fill="#00C39C"/>
<path fill-rule="evenodd" clip-rule="evenodd" d="M29.1552 775.992C28.0372 770.836 33.1611 766.539 38.0477 768.535L65.0003 779.544C77.0935 782.413 90.7975 791.304 102.088 804.751C121.445 827.807 126.38 855.519 113.111 866.646C99.8417 877.773 73.3931 868.104 54.0361 845.048C43.6432 832.67 37.4094 818.949 35.9165 807.173L29.1552 775.992ZM51.0146 796.234L94.7606 848.338L99.1998 844.615L55.4538 792.511L51.0146 796.234Z" fill="#00C39C"/>
<path d="M127.726 716H214.65V917.257H127.726V716Z" fill="#00C39C"/>
<path d="M214.973 931.148L127.752 941.692V833.38H214.973V931.148Z" fill="#00C39C"/>
<path fill-rule="evenodd" clip-rule="evenodd" d="M313.403 76.9561C314.521 71.8 309.397 67.5029 304.511 69.4987L277.558 80.5078C265.465 83.377 251.761 92.2678 240.47 105.715C221.113 128.771 216.178 156.483 229.447 167.61C242.717 178.737 269.165 169.068 288.522 146.012C298.915 133.634 305.149 119.913 306.642 108.137L313.403 76.9561ZM291.544 97.1979L247.798 149.302L243.358 145.579L287.104 93.4752L291.544 97.1979Z" fill="#00C39C"/>
<path d="M215.247 241.607H128.323V40.3497H215.247V241.607Z" fill="#00C39C"/>
<path d="M128 26.459L215.221 15.9151V124.227H128V26.459Z" fill="#00C39C"/>
<path fill-rule="evenodd" clip-rule="evenodd" d="M313.403 539.957C314.521 534.8 309.397 530.503 304.511 532.499L277.558 543.508C265.465 546.377 251.761 555.268 240.47 568.716C221.113 591.771 216.178 619.483 229.447 630.611C242.717 641.738 269.165 632.068 288.522 609.013C298.915 596.634 305.149 582.913 306.642 571.138L313.403 539.957ZM291.544 560.198L247.798 612.303L243.358 608.58L287.104 556.476L291.544 560.198Z" fill="#00C39C"/>
<path d="M215.247 704.608H128.323V503.35H215.247V704.608Z" fill="#00C39C"/>
<path d="M128 489.459L215.221 478.916V587.228H128V489.459Z" fill="#00C39C"/>
</g>
<g clip-path="url(#clip2_381_93)">
<path fill-rule="evenodd" clip-rule="evenodd" d="M424.892 234.498C424.046 229.29 429.387 225.267 434.163 227.516L460.502 239.921C472.429 243.419 485.649 253.015 496.22 267.035C514.344 291.072 517.821 319.004 503.988 329.422C490.155 339.839 464.249 328.799 446.125 304.762C436.394 291.856 430.887 277.828 430.012 265.99L424.892 234.498ZM445.662 255.856L486.621 310.178L491.249 306.693L450.29 252.371L445.662 255.856Z" fill="#00C39C"/>
<path d="M526.468 179.747L613.273 184.296L602.74 385.278L515.935 380.729L526.468 179.747Z" fill="#00C39C"/>
<path d="M602.335 399.167L514.681 405.131L520.35 296.967L607.452 301.532L602.335 399.167Z" fill="#00C39C"/>
<path fill-rule="evenodd" clip-rule="evenodd" d="M400.661 696.863C399.814 691.656 405.156 687.633 409.931 689.882L436.271 702.286C448.197 705.784 461.417 715.38 471.988 729.4C490.112 753.437 493.59 781.369 479.757 791.787C465.924 802.204 440.017 791.164 421.893 767.127C412.163 754.221 406.655 740.193 405.781 728.356L400.661 696.863ZM421.431 718.221L462.39 772.544L467.018 769.058L426.059 714.736L421.431 718.221Z" fill="#00C39C"/>
<path d="M502.236 642.112L589.041 646.661L578.508 847.643L491.703 843.094L502.236 642.112Z" fill="#00C39C"/>
<path d="M578.103 861.532L490.45 867.496L496.118 759.333L583.22 763.897L578.103 861.532Z" fill="#00C39C"/>
<path fill-rule="evenodd" clip-rule="evenodd" d="M721.104 13.662C722.49 8.57141 717.598 4.01211 712.614 5.74944L685.122 15.3328C672.895 17.5651 658.745 25.7265 646.766 38.5648C626.229 60.5757 619.85 87.9911 632.519 99.7979C645.187 111.604 672.106 103.332 692.643 81.3213C703.669 69.5035 710.613 56.1277 712.72 44.4465L721.104 13.662ZM698.215 32.732L651.802 82.4753L647.564 78.5253L693.977 28.782L698.215 32.732Z" fill="#00C39C"/>
<path d="M614.464 172.95L527.659 168.401L538.192 -32.5807L624.997 -28.0314L614.464 172.95Z" fill="#00C39C"/>
<path d="M538.597 -46.4693L626.251 -52.4339L620.582 55.7299L533.48 51.165L538.597 -46.4693Z" fill="#00C39C"/>
<path fill-rule="evenodd" clip-rule="evenodd" d="M696.872 476.027C698.259 470.937 693.367 466.377 688.382 468.115L660.89 477.698C648.664 479.93 634.513 488.092 622.534 500.93C601.997 522.941 595.619 550.356 608.287 562.163C620.956 573.969 647.874 565.697 668.411 543.686C679.438 531.869 686.381 518.493 688.488 506.812L696.872 476.027ZM673.984 495.097L627.571 544.84L623.332 540.891L669.745 491.147L673.984 495.097Z" fill="#00C39C"/>
<path d="M590.233 635.316L503.428 630.767L513.961 429.785L600.766 434.334L590.233 635.316Z" fill="#00C39C"/>
<path d="M514.366 415.896L602.019 409.932L596.351 518.096L509.249 513.531L514.366 415.896Z" fill="#00C39C"/>
</g>
<g clip-path="url(#clip3_381_93)">
<path fill-rule="evenodd" clip-rule="evenodd" d="M788.184 313.842C786.887 308.728 791.858 304.254 796.811 306.079L824.132 316.14C836.317 318.586 850.323 326.993 862.076 340.038C882.226 362.404 888.125 389.927 875.253 401.511C862.38 413.094 835.61 404.353 815.46 381.987C804.641 369.979 797.933 356.484 796.03 344.768L788.184 313.842ZM810.737 333.308L856.275 383.854L860.581 379.979L815.043 329.433L810.737 333.308Z" fill="#00C39C"/>
<path d="M884.601 250.446L971.473 247.413L978.496 448.547L891.625 451.581L884.601 250.446Z" fill="#00C39C"/>
<path d="M979.304 462.418L892.503 476L888.723 367.754L975.892 364.71L979.304 462.418Z" fill="#00C39C"/>
<path fill-rule="evenodd" clip-rule="evenodd" d="M804.343 776.561C803.045 771.447 808.016 766.974 812.969 768.798L840.29 778.86C852.476 781.305 866.482 789.712 878.235 802.758C898.385 825.124 904.283 852.646 891.411 864.23C878.538 875.814 851.768 867.073 831.618 844.707C820.8 832.699 814.091 819.204 812.188 807.488L804.343 776.561ZM826.895 796.028L872.433 846.574L876.739 842.698L831.202 792.153L826.895 796.028Z" fill="#00C39C"/>
<path d="M900.76 713.166L987.631 710.132L994.655 911.267L907.783 914.301L900.76 713.166Z" fill="#00C39C"/>
<path d="M995.462 925.138L908.662 938.72L904.882 830.473L992.05 827.429L995.462 925.138Z" fill="#00C39C"/>
<path fill-rule="evenodd" clip-rule="evenodd" d="M1064.02 68.0298C1064.96 62.8378 1059.69 58.7222 1054.87 60.8873L1028.32 72.8303C1016.34 76.1197 1002.95 85.4834 992.137 99.3168C973.596 123.034 969.631 150.901 983.28 161.559C996.93 172.216 1023.02 161.629 1041.57 137.912C1051.52 125.178 1057.27 111.248 1058.35 99.4279L1064.02 68.0298ZM1042.88 89.0221L1000.98 142.621L996.414 139.056L1038.32 85.4566L1042.88 89.0221Z" fill="#00C39C"/>
<path d="M971.671 236.006L884.799 239.04L877.776 37.9047L964.647 34.8711L971.671 236.006Z" fill="#00C39C"/>
<path d="M876.968 24.0337L963.769 10.4522L967.549 118.698L880.38 121.742L876.968 24.0337Z" fill="#00C39C"/>
<path fill-rule="evenodd" clip-rule="evenodd" d="M1080.18 530.748C1081.12 525.556 1075.85 521.44 1071.03 523.605L1044.48 535.548C1032.49 538.838 1019.11 548.201 1008.3 562.035C989.754 585.752 985.79 613.619 999.439 624.276C1013.09 634.934 1039.18 624.347 1057.72 600.63C1067.68 587.896 1073.43 573.966 1074.51 562.146L1080.18 530.748ZM1059.04 551.74L1017.14 605.339L1012.57 601.773L1054.47 548.174L1059.04 551.74Z" fill="#00C39C"/>
<path d="M987.83 698.724L900.958 701.758L893.935 500.623L980.806 497.589L987.83 698.724Z" fill="#00C39C"/>
<path d="M893.128 486.752L979.928 473.17L983.708 581.417L896.54 584.461L893.128 486.752Z" fill="#00C39C"/>
</g>
<g clip-path="url(#clip4_381_93)">
<path fill-rule="evenodd" clip-rule="evenodd" d="M1170.16 312.993C1169.04 307.837 1174.16 303.54 1179.05 305.536L1206 316.545C1218.09 319.414 1231.8 328.305 1243.09 341.752C1262.45 364.808 1267.38 392.52 1254.11 403.647C1240.84 414.774 1214.39 405.105 1195.04 382.049C1184.64 369.67 1178.41 355.95 1176.92 344.174L1170.16 312.993ZM1192.01 333.235L1235.76 385.339L1240.2 381.616L1196.45 329.512L1192.01 333.235Z" fill="#00C39C"/>
<path d="M1268.73 253.001H1355.65V454.258H1268.73V253.001Z" fill="#00C39C"/>
<path d="M1355.97 468.149L1268.75 478.693V370.381H1355.97V468.149Z" fill="#00C39C"/>
<path fill-rule="evenodd" clip-rule="evenodd" d="M1170.16 775.993C1169.04 770.837 1174.16 766.54 1179.05 768.536L1206 779.545C1218.09 782.414 1231.8 791.305 1243.09 804.752C1262.45 827.808 1267.38 855.52 1254.11 866.647C1240.84 877.774 1214.39 868.105 1195.04 845.049C1184.64 832.67 1178.41 818.95 1176.92 807.174L1170.16 775.993ZM1192.01 796.235L1235.76 848.339L1240.2 844.616L1196.45 792.512L1192.01 796.235Z" fill="#00C39C"/>
<path d="M1268.73 716.001H1355.65V917.258H1268.73V716.001Z" fill="#00C39C"/>
<path d="M1355.97 931.149L1268.75 941.693V833.381H1355.97V931.149Z" fill="#00C39C"/>
<path fill-rule="evenodd" clip-rule="evenodd" d="M1454.4 76.9566C1455.52 71.8005 1450.4 67.5034 1445.51 69.4992L1418.56 80.5083C1406.46 83.3774 1392.76 92.2682 1381.47 105.716C1362.11 128.771 1357.18 156.483 1370.45 167.611C1383.72 178.738 1410.17 169.068 1429.52 146.013C1439.92 133.634 1446.15 119.913 1447.64 108.138L1454.4 76.9566ZM1432.54 97.1984L1388.8 149.303L1384.36 145.58L1428.1 93.4756L1432.54 97.1984Z" fill="#00C39C"/>
<path d="M1356.25 241.608H1269.32V40.3502H1356.25V241.608Z" fill="#00C39C"/>
<path d="M1269 26.4594L1356.22 15.9155V124.228H1269V26.4594Z" fill="#00C39C"/>
<path fill-rule="evenodd" clip-rule="evenodd" d="M1454.4 539.957C1455.52 534.8 1450.4 530.503 1445.51 532.499L1418.56 543.508C1406.46 546.377 1392.76 555.268 1381.47 568.716C1362.11 591.771 1357.18 619.483 1370.45 630.611C1383.72 641.738 1410.17 632.068 1429.52 609.013C1439.92 596.634 1446.15 582.913 1447.64 571.138L1454.4 539.957ZM1432.54 560.198L1388.8 612.303L1384.36 608.58L1428.1 556.476L1432.54 560.198Z" fill="#00C39C"/>
<path d="M1356.25 704.608H1269.32V503.35H1356.25V704.608Z" fill="#00C39C"/>
<path d="M1269 489.459L1356.22 478.916V587.228H1269V489.459Z" fill="#00C39C"/>
</g>
</g>
<defs>
<clipPath id="clip0_381_93">
<rect width="1500" height="855" fill="white"/>
</clipPath>
<clipPath id="clip1_381_93">
<rect width="375" height="855" fill="white"/>
</clipPath>
<clipPath id="clip2_381_93">
<rect width="375" height="855" fill="white" transform="translate(375)"/>
</clipPath>
<clipPath id="clip3_381_93">
<rect width="375" height="855" fill="white" transform="translate(750 -2)"/>
</clipPath>
<clipPath id="clip4_381_93">
<rect width="375" height="853" fill="white" transform="translate(1125)"/>
</clipPath>
</defs>
</svg>
