<svg width="800" height="1200" viewBox="0 0 800 1200" fill="none" xmlns="http://www.w3.org/2000/svg">
  <style>
    @keyframes slideUp {
      0% {
        transform: translateY(1200px);
        opacity: 0;
      }
      100% {
        transform: translateY(0px);
        opacity: 1;
      }
    }

    @keyframes sway {
      0% { transform: rotate(0deg); }
      50% { transform: rotate(1deg); }
      100% { transform: rotate(0deg); }
    }

    g[clip-path="url(#clip2_393_2912)"] {
      animation:
        slideUp 2.0s ease-out forwards,
        sway 6s ease-in-out infinite 2.0s;
      transform-origin: center bottom;
    }
  </style>
  <g clip-path="url(#clip0_393_2912)">
    <g clip-path="url(#clip2_393_2912)">
      <path fill-rule="evenodd" clip-rule="evenodd" d="M458.155 179.993C457.037 174.837 462.161 170.54 467.048 172.536L494 183.545C506.093 186.414 519.797 195.305 531.088 208.752C550.445 231.808 555.38 259.52 542.111 270.647C528.842 281.774 502.393 272.105 483.036 249.049C472.643 236.67 466.409 222.95 464.917 211.174L458.155 179.993ZM480.015 200.235L523.761 252.339L528.2 248.616L484.454 196.512L480.015 200.235Z" fill="#00C39C"/>
      <path d="M556.726 120.001H643.65V321.258H556.726V120.001Z" fill="#00C39C"/>
      <path d="M643.973 335.149L556.752 345.693V237.381H643.973V335.149Z" fill="#00C39C"/>
      <path fill-rule="evenodd" clip-rule="evenodd" d="M458.155 642.993C457.037 637.837 462.161 633.54 467.048 635.536L494 646.545C506.093 649.414 519.797 658.305 531.088 671.752C550.445 694.808 555.38 722.52 542.111 733.647C528.842 744.774 502.393 735.105 483.036 712.049C472.643 699.67 466.409 685.95 464.917 674.174L458.155 642.993ZM480.015 663.235L523.761 715.339L528.2 711.616L484.454 659.512L480.015 663.235Z" fill="#00C39C"/>
      <path d="M556.726 583.001H643.65V784.258H556.726V583.001Z" fill="#00C39C"/>
      <path d="M643.973 798.149L556.752 808.693V700.381H643.973V798.149Z" fill="#00C39C"/>
      <path fill-rule="evenodd" clip-rule="evenodd" d="M742.403 -56.0434C743.521 -61.1995 738.397 -65.4966 733.511 -63.5008L706.558 -52.4917C694.465 -49.6226 680.761 -40.7318 669.47 -27.2842C650.113 -4.22855 645.178 23.4831 658.447 34.6107C671.717 45.7378 698.165 36.0681 717.522 13.0127C727.915 0.634045 734.149 -13.0868 735.642 -24.8623L742.403 -56.0434ZM720.544 -35.8016L676.798 16.3026L672.358 12.5798L716.104 -39.5244L720.544 -35.8016Z" fill="#00C39C"/>
      <path d="M644.247 108.608H557.323V-92.6498H644.247V108.608Z" fill="#00C39C"/>
      <path d="M557 -106.541L644.221 -117.084V-8.77226H557V-106.541Z" fill="#00C39C"/>
      <path fill-rule="evenodd" clip-rule="evenodd" d="M742.403 406.957C743.521 401.8 738.397 397.503 733.511 399.499L706.558 410.508C694.465 413.377 680.761 422.268 669.47 435.716C650.113 458.771 645.178 486.483 658.447 497.611C671.717 508.738 698.165 499.068 717.522 476.013C727.915 463.634 734.149 449.913 735.642 438.138L742.403 406.957ZM720.544 427.198L676.798 479.303L672.358 475.58L716.104 423.476L720.544 427.198Z" fill="#00C39C"/>
      <path d="M644.247 571.608H557.323V370.35H644.247V571.608Z" fill="#00C39C"/>
      <path d="M557 356.459L644.221 345.916V454.228H557V356.459Z" fill="#00C39C"/>
      <path fill-rule="evenodd" clip-rule="evenodd" d="M458.155 1105.99C457.037 1100.84 462.161 1096.54 467.048 1098.54L494 1109.54C506.093 1112.41 519.797 1121.3 531.088 1134.75C550.445 1157.81 555.38 1185.52 542.111 1196.65C528.842 1207.77 502.393 1198.1 483.036 1175.05C472.643 1162.67 466.409 1148.95 464.917 1137.17L458.155 1105.99ZM480.015 1126.23L523.761 1178.34L528.2 1174.62L484.454 1122.51L480.015 1126.23Z" fill="#00C39C"/>
      <path d="M556.726 1046H643.65V1247.26H556.726V1046Z" fill="#00C39C"/>
      <path d="M643.973 1261.15L556.752 1271.69V1163.38H643.973V1261.15Z" fill="#00C39C"/>
      <path fill-rule="evenodd" clip-rule="evenodd" d="M742.403 869.957C743.521 864.8 738.397 860.503 733.511 862.499L706.558 873.508C694.465 876.377 680.761 885.268 669.47 898.716C650.113 921.771 645.178 949.483 658.447 960.611C671.717 971.738 698.165 962.068 717.522 939.013C727.915 926.634 734.149 912.913 735.642 901.138L742.403 869.957ZM720.544 890.198L676.798 942.303L672.358 938.58L716.104 886.476L720.544 890.198Z" fill="#00C39C"/>
      <path d="M644.247 1034.61H557.323V833.35H644.247V1034.61Z" fill="#00C39C"/>
      <path d="M557 819.459L644.221 808.916V917.228H557V819.459Z" fill="#00C39C"/>
    </g>
  </g>
  <defs>
    <clipPath id="clip0_393_2912">
      <rect width="800" height="1200" fill="white"/>
    </clipPath>
    <clipPath id="clip2_393_2912">
      <rect width="400" height="1200" fill="white" transform="translate(400)"/>
    </clipPath>
  </defs>
</svg>
